<svg width="1250" height="930" viewBox="0 0 1250 930" fill="none" xmlns="http://www.w3.org/2000/svg">
<g opacity="0.15">
<path d="M29.1016 -325L-1197.41 1132" stroke="#797C86"/>
<path d="M161.556 -325L-720.202 1132" stroke="#797C86"/>
<path d="M294.011 -325L-302.738 1132" stroke="#797C86"/>
<path d="M426.465 -325L80.3358 1132" stroke="#797C86"/>
<path d="M558.92 -325L445.415 1132" stroke="#797C86"/>
<path d="M691.375 -325L804.88 1132" stroke="#797C86"/>
<path d="M823.829 -325L1169.96 1132" stroke="#797C86"/>
<path d="M956.284 -325L1553.03 1132" stroke="#797C86"/>
<path d="M1088.74 -325L1970.5 1132" stroke="#797C86"/>
<path d="M1221.19 -325L2447.71 1132" stroke="#797C86"/>
<path d="M-552.643 65.5615H1802.94" stroke="#797C86"/>
<path d="M-642.088 143.315H1892.38" stroke="#797C86"/>
<path d="M-745.846 233.511H1996.14" stroke="#797C86"/>
<path d="M-865.685 337.686H2115.98" stroke="#797C86"/>
<path d="M-1003.53 457.511H2253.82" stroke="#797C86"/>
<path d="M-1161.47 594.805H2411.76" stroke="#797C86"/>
<path d="M-1341.77 751.537H2592.06" stroke="#797C86"/>
<path d="M-1546.88 929.835H2797.17" stroke="#797C86"/>
</g>
</svg>
